<?xml version="1.0" encoding="UTF-8"?>
<svg class="bob" font-family="arial" font-size="14" height="288" width="304" xmlns="http://www.w3.org/2000/svg">
    <defs>
        <marker id="triangle" markerHeight="10" markerUnits="strokeWidth" markerWidth="10" orient="auto" refX="15" refY="10" viewBox="0 0 50 20">
            <path d="M 0 0 L 30 10 L 0 20 z"></path>
        </marker>
    </defs>
    <style>

        line, path {
        stroke: black;
        stroke-width: 2;
        stroke-opacity: 1;
        fill-opacity: 1;
        stroke-linecap: round;
        stroke-linejoin: miter;
        }
        circle {
        stroke: black;
        stroke-width: 2;
        stroke-opacity: 1;
        fill-opacity: 1;
        stroke-linecap: round;
        stroke-linejoin: miter;
        }
        circle.solid {
        fill:black;
        }
        circle.open {
        fill:transparent;
        }
        tspan.head{
        fill: none;
        stroke: none;
        }

    </style>
    <path d=" M 16 24 A 4 4 0 0 0 12 28 L 12 32 M 16 24 L 24 24 M 16 24 L 24 24 L 32 24 M 24 24 L 32 24 L 40 24 M 32 24 L 40 24 L 48 24 M 40 24 L 48 24 L 56 24 M 48 24 L 56 24 L 64 24 M 56 24 L 64 24 L 72 24 M 64 24 L 72 24 L 80 24 M 72 24 L 80 24 L 88 24 M 80 24 L 88 24 L 96 24 M 88 24 L 96 24 L 104 24 M 96 24 L 104 24 L 112 24 M 104 24 L 112 24 L 120 24 M 112 24 L 120 24 L 128 24 M 120 24 L 128 24 L 136 24 M 128 24 L 136 24 L 144 24 M 136 24 L 144 24 L 152 24 M 144 24 L 152 24 L 160 24 M 152 24 L 160 24 L 168 24 M 160 24 L 168 24 L 176 24 M 168 24 L 176 24 L 184 24 M 176 24 L 184 24 L 192 24 M 184 24 L 192 24 L 200 24 M 192 24 L 200 24 L 208 24 M 200 24 L 208 24 L 216 24 M 208 24 L 216 24 M 220 28 A 4 4 0 0 0 216 24 M 220 28 L 220 32 M 12 32 L 12 48 M 12 32 L 12 48 M 40 40 A 4 4 0 0 0 36 44 L 36 48 M 40 40 L 48 40 M 40 40 L 48 40 L 56 40 M 48 40 L 56 40 L 64 40 M 56 40 L 64 40 L 72 40 M 64 40 L 72 40 L 80 40 M 72 40 L 80 40 L 88 40 M 80 40 L 88 40 L 96 40 M 88 40 L 96 40 L 104 40 M 96 40 L 104 40 L 112 40 M 104 40 L 112 40 L 120 40 M 112 40 L 120 40 L 128 40 M 120 40 L 128 40 M 132 44 A 4 4 0 0 0 128 40 M 132 44 L 132 48 M 220 32 L 220 48 M 220 32 L 220 48 M 12 48 L 12 64 M 12 48 L 12 64 M 36 48 L 36 64 M 36 48 L 36 64 M 132 56 L 132 48 M 132 56 L 136 56 M 132 56 L 132 64 M 136 56 L 144 56 M 136 56 L 144 56 L 152 56 M 144 56 L 152 56 L 160 56 M 152 56 L 160 56 L 168 56 M 160 56 L 168 56 L 176 56 M 168 56 L 176 56 L 184 56 M 176 56 L 184 56 L 192 56 M 184 56 L 192 56 M 196 60 A 4 4 0 0 0 192 56 M 196 60 L 196 64 M 220 48 L 220 64 M 220 48 L 220 64 M 12 68 L 12 64 M 12 68 A 4 4 0 0 0 16 72 L 24 72 M 16 72 L 24 72 L 32 72 M 24 72 L 32 72 M 36 72 L 36 64 M 36 72 L 32 72 M 36 72 L 36 80 M 132 64 L 132 80 M 132 64 L 132 80 M 196 64 L 196 80 M 196 64 L 196 80 M 220 64 L 220 80 M 220 64 L 220 80 M 36 80 L 36 96 M 36 80 L 36 96 M 132 80 L 132 96 M 132 80 L 132 96 M 176 88 A 4 4 0 0 0 172 92 L 172 96 M 176 88 L 184 88 M 176 88 L 184 88 L 192 88 M 184 88 L 192 88 M 196 88 L 196 80 M 196 88 L 192 88 M 196 88 L 200 88 L 208 88 M 200 88 L 208 88 L 216 88 M 208 88 L 216 88 M 220 88 L 220 80 M 220 88 L 216 88 M 220 88 L 224 88 L 232 88 M 224 88 L 232 88 L 240 88 M 232 88 L 240 88 M 244 92 A 4 4 0 0 0 240 88 M 244 92 L 244 96 M 36 96 L 36 112 M 36 96 L 36 112 M 132 96 L 132 112 M 132 96 L 132 112 M 172 96 L 172 112 M 172 96 L 172 112 M 244 96 L 244 112 M 244 96 L 244 112 M 36 112 L 36 128 M 36 112 L 36 128 M 132 112 L 132 128 M 132 112 L 132 128 M 172 112 L 172 128 M 172 112 L 172 128 M 244 112 L 244 128 M 244 112 L 244 128 M 36 128 L 36 144 M 36 128 L 36 144 M 132 128 L 132 144 M 132 128 L 132 144 M 172 128 L 172 144 M 172 128 L 172 144 M 244 128 L 244 144 M 244 128 L 244 144 M 36 144 L 36 160 M 36 144 L 36 160 M 132 144 L 132 160 M 132 144 L 132 160 M 172 144 L 172 160 M 172 144 L 172 160 M 244 144 L 244 160 M 244 144 L 244 160 M 36 160 L 36 176 M 36 160 L 36 176 M 132 160 L 132 176 M 132 160 L 132 176 M 172 164 L 172 160 M 172 164 A 4 4 0 0 0 176 168 L 184 168 M 176 168 L 184 168 M 188 168 L 184 168 M 188 168 L 192 168 M 188 168 L 188 176 M 192 168 L 200 168 M 192 168 L 200 168 M 204 168 L 200 168 M 204 168 L 208 168 M 204 168 L 204 176 M 208 168 L 216 168 M 208 168 L 216 168 L 224 168 M 216 168 L 224 168 L 232 168 M 224 168 L 232 168 L 240 168 M 232 168 L 240 168 M 244 164 L 244 160 M 240 168 A 4 4 0 0 0 244 164 M 36 176 L 36 192 M 36 176 L 36 192 M 132 176 L 132 192 M 132 176 L 132 192 M 188 176 L 188 192 M 188 176 L 188 192 M 204 176 L 204 192 M 204 176 L 204 192 M 36 192 L 36 208 M 36 192 L 36 208 M 132 192 L 132 208 M 132 192 L 132 208 M 188 192 L 188 208 M 188 192 L 188 208 M 204 192 L 204 208 M 204 192 L 204 208 M 36 208 L 36 224 M 36 208 L 36 224 M 132 216 L 132 208 M 132 216 L 136 216 M 132 216 L 132 224 M 136 216 L 144 216 M 136 216 L 144 216 L 152 216 M 144 216 L 152 216 L 160 216 M 152 216 L 160 216 L 168 216 M 160 216 L 168 216 L 176 216 M 168 216 L 176 216 L 184 216 M 176 216 L 184 216 M 188 212 L 188 208 M 184 216 A 4 4 0 0 0 188 212 M 204 208 L 204 224 M 204 208 L 204 224 M 36 224 L 36 240 M 36 224 L 36 240 M 132 224 L 132 240 M 132 224 L 132 240 M 204 224 L 204 240 M 204 224 L 204 240 M 36 240 L 36 256 M 36 240 L 36 256 M 132 248 L 132 240 M 132 248 L 136 248 M 132 248 L 132 256 M 136 248 L 144 248 M 136 248 L 144 248 L 152 248 M 144 248 L 152 248 L 160 248 M 152 248 L 160 248 L 168 248 M 160 248 L 168 248 L 176 248 M 168 248 L 176 248 L 184 248 M 176 248 L 184 248 L 192 248 M 184 248 L 192 248 L 200 248 M 192 248 L 200 248 M 204 244 L 204 240 M 200 248 A 4 4 0 0 0 204 244 M 36 256 L 36 272 M 36 256 L 36 272 M 132 256 L 132 272 M 132 256 L 132 272 M 36 276 L 36 272 M 36 276 A 4 4 0 0 0 40 280 L 48 280 M 40 280 L 48 280 L 56 280 M 48 280 L 56 280 L 64 280 M 56 280 L 64 280 L 72 280 M 64 280 L 72 280 L 80 280 M 72 280 L 80 280 L 88 280 M 80 280 L 88 280 L 96 280 M 88 280 L 96 280 L 104 280 M 96 280 L 104 280 L 112 280 M 104 280 L 112 280 L 120 280 M 112 280 L 120 280 L 128 280 M 120 280 L 128 280 M 132 276 L 132 272 M 128 280 A 4 4 0 0 0 132 276" fill="none"></path>
    <path d="" fill="none" stroke-dasharray="3 3"></path>
    <text x="145" y="44">
        3V3
    </text>
    <text x="169" y="76">
        VIN
    </text>
    <text x="233" y="76">
        GND
    </text>
    <text x="1" y="92">
        GND
    </text>
    <text x="185" y="124">
        Si7021
    </text>
    <text x="65" y="140">
        Photon
    </text>
    <text x="153" y="188">
        SCL
    </text>
    <text x="217" y="188">
        SDA
    </text>
    <text x="137" y="236">
        D1
    </text>
    <text x="137" y="268">
        D0
    </text>
</svg>